# Blender 4.2.3 LTS
# www.blender.org
mtllib diamond.mtl
o Gem.001
v 0.000000 -0.800000 0.000000
v 0.000000 0.350000 0.000000
v 0.000000 -0.400000 -0.541196
v 0.382683 0.000000 -0.923880
v 0.000000 0.175000 -0.865914
v 0.229610 0.350000 -0.554328
v 0.382683 -0.400000 -0.382683
v 0.923880 0.000000 -0.382683
v 0.612293 0.175000 -0.612293
v 0.554328 0.350000 -0.229610
v 0.541196 -0.400000 -0.000000
v 0.923880 0.000000 0.382683
v 0.865914 0.175000 -0.000000
v 0.554328 0.350000 0.229610
v 0.382683 -0.400000 0.382683
v 0.382683 0.000000 0.923880
v 0.612293 0.175000 0.612293
v 0.229610 0.350000 0.554328
v 0.000000 -0.400000 0.541196
v -0.382683 0.000000 0.923880
v 0.000000 0.175000 0.865914
v -0.229610 0.350000 0.554328
v -0.382683 -0.400000 0.382683
v -0.923880 0.000000 0.382683
v -0.612293 0.175000 0.612293
v -0.554328 0.350000 0.229610
v -0.541196 -0.400000 0.000000
v -0.923880 0.000000 -0.382683
v -0.865914 0.175000 0.000000
v -0.554328 0.350000 -0.229610
v -0.382683 -0.400000 -0.382683
v -0.382683 0.000000 -0.923880
v -0.612293 0.175000 -0.612293
v -0.229610 0.350000 -0.554328
vn 0.2391 -0.7809 -0.5771
vn 0.5109 -0.6913 -0.5109
vn 0.6712 0.3144 -0.6712
vn 0.2520 0.7526 -0.6084
vn 0.3463 0.8719 -0.3463
vn 0.5771 -0.7809 -0.2391
vn 0.7226 -0.6913 -0.0000
vn 0.9493 0.3144 -0.0000
vn 0.6084 0.7526 -0.2520
vn 0.4897 0.8719 -0.0000
vn 0.5771 -0.7809 0.2391
vn 0.5109 -0.6913 0.5109
vn 0.6712 0.3144 0.6712
vn 0.6084 0.7526 0.2520
vn 0.3463 0.8719 0.3463
vn 0.2391 -0.7809 0.5771
vn -0.0000 -0.6913 0.7226
vn -0.0000 0.3144 0.9493
vn 0.2520 0.7526 0.6084
vn -0.0000 0.8719 0.4897
vn -0.2391 -0.7809 0.5771
vn -0.5109 -0.6913 0.5109
vn -0.6712 0.3144 0.6712
vn -0.2520 0.7526 0.6084
vn -0.3463 0.8719 0.3463
vn -0.5771 -0.7809 0.2391
vn -0.7226 -0.6913 -0.0000
vn -0.9493 0.3144 -0.0000
vn -0.6084 0.7526 0.2520
vn -0.4897 0.8719 -0.0000
vn -0.5771 -0.7809 -0.2391
vn -0.5109 -0.6913 -0.5109
vn -0.6712 0.3144 -0.6712
vn -0.6084 0.7526 -0.2520
vn -0.3463 0.8719 -0.3463
vn -0.2391 -0.7809 -0.5771
vn -0.0000 -0.6913 -0.7226
vn -0.0000 0.3144 -0.9493
vn -0.2520 0.7526 -0.6084
vn -0.0000 0.8719 -0.4897
vn -0.0000 1.0000 -0.0000
vt 0.096845 0.688197
vt 0.000000 0.706228
vt 0.055818 0.521370
vt 0.249507 0.567812
vt 0.363971 0.513973
vt 0.146581 0.521370
vt 0.245949 0.492183
vt 0.171405 0.396835
vt 0.301840 0.392397
vt 0.193689 0.752669
vt 0.386466 0.741492
vt 0.517689 0.354935
vt 0.419862 0.414187
vt 0.394071 0.296974
vt 0.233803 0.861877
vt 0.386466 0.940671
vt 0.517689 0.137418
vt 0.491898 0.237722
vt 0.394071 0.166464
vt 0.193689 0.951848
vt 0.799317 0.423394
vt 0.815441 0.533986
vt 0.641022 0.533986
vt 0.516063 0.808910
vt 0.466886 0.965311
vt 0.439742 0.875265
vt 0.419862 0.066160
vt 0.301840 0.077318
vt 0.712108 0.377585
vt 0.517689 0.377585
vt 0.516063 0.587726
vt 0.462788 0.698318
vt 0.386466 0.764673
vt 0.245949 -0.000000
vt 0.171405 0.081757
vt 0.675984 0.266993
vt 0.517689 0.156401
vt 1.000000 0.377585
vt 0.950822 0.533986
vt 0.923678 0.443940
vt 0.386466 0.631962
vt 0.439742 0.521370
vt 0.072037 0.077997
vt 0.079175 0.177180
vt 0.712108 0.156401
vt 0.641022 -0.000000
vt 1.000000 0.156401
vt 0.946724 0.266993
vt 0.870403 0.333348
vt -0.000000 0.254461
vt 0.079175 0.307690
vt 0.799317 0.110592
vt 0.815441 0.000000
vt 0.950822 0.000000
vt 0.923678 0.090046
vt 0.870403 0.200638
vt 0.072037 0.426023
vt 0.236623 0.237077
vt 0.041026 0.873055
vt 0.870403 0.266993
s 0
f 7/1/1 3/2/1 4/3/1
f 7/1/2 4/3/2 8/4/2
f 8/5/3 4/6/3 9/7/3
f 4/6/4 6/8/4 9/7/4
f 9/7/5 6/8/5 10/9/5
f 11/10/6 7/1/6 8/4/6
f 11/10/7 8/4/7 12/11/7
f 12/12/8 8/5/8 13/13/8
f 8/5/9 10/9/9 13/13/9
f 13/13/10 10/9/10 14/14/10
f 15/15/11 11/10/11 12/11/11
f 15/15/12 12/11/12 16/16/12
f 16/17/13 12/12/13 17/18/13
f 12/12/14 14/14/14 17/18/14
f 17/18/15 14/14/15 18/19/15
f 19/20/16 15/15/16 16/16/16
f 19/21/17 16/22/17 20/23/17
f 20/24/18 16/25/18 21/26/18
f 16/17/19 18/19/19 21/27/19
f 21/27/20 18/19/20 22/28/20
f 23/29/21 19/21/21 20/23/21
f 23/29/22 20/23/22 24/30/22
f 24/31/23 20/24/23 25/32/23
f 20/24/24 22/33/24 25/32/24
f 25/34/25 22/28/25 26/35/25
f 27/36/26 23/29/26 24/30/26
f 27/36/27 24/30/27 28/37/27
f 28/38/28 24/39/28 29/40/28
f 24/31/29 26/41/29 29/42/29
f 29/43/30 26/35/30 30/44/30
f 31/45/31 27/36/31 28/37/31
f 31/45/32 28/37/32 32/46/32
f 32/47/33 28/38/33 33/48/33
f 28/38/34 30/49/34 33/48/34
f 33/50/35 30/44/35 34/51/35
f 3/52/36 31/45/36 32/46/36
f 3/52/37 32/46/37 4/53/37
f 4/54/38 32/47/38 5/55/38
f 32/47/39 34/56/39 5/55/39
f 5/57/40 34/51/40 6/8/40
f 2/58/41 6/8/41 34/51/41
f 6/8/41 2/58/41 10/9/41
f 10/9/41 2/58/41 14/14/41
f 14/14/41 2/58/41 18/19/41
f 18/19/41 2/58/41 22/28/41
f 22/28/41 2/58/41 26/35/41
f 26/35/41 2/58/41 30/44/41
f 30/44/41 2/58/41 34/51/41
f 7/1/1 1/59/1 3/2/1
f 4/6/4 5/57/4 6/8/4
f 11/10/6 1/59/6 7/1/6
f 8/5/9 9/7/9 10/9/9
f 15/15/11 1/59/11 11/10/11
f 12/12/14 13/13/14 14/14/14
f 19/20/16 1/59/16 15/15/16
f 16/17/19 17/18/19 18/19/19
f 23/29/21 1/60/21 19/21/21
f 20/24/24 21/26/24 22/33/24
f 27/36/26 1/60/26 23/29/26
f 24/31/29 25/32/29 26/41/29
f 31/45/31 1/60/31 27/36/31
f 28/38/34 29/40/34 30/49/34
f 3/52/36 1/60/36 31/45/36
f 32/47/39 33/48/39 34/56/39
